<svg xmlns="http://www.w3.org/2000/svg" width="518" height="513" viewBox="0 0 518 513">
    <g fill="none" fill-rule="evenodd" opacity=".048" transform="translate(0 -1)">
        <path d="M455.359 31.855l29.302 24.97c5.393-6.444 9.84-11.211 12.674-14.112L474.506.873c-5.109 7.461-11.86 18.007-19.147 30.982z"/>
        <path fill="#FFF" d="M245.617 547.616C119.213 535.476 19.993 427.279 19.993 296.043c0-139.328 111.836-252.686 249.3-252.686 129.486 0 236.225 100.6 248.179 228.74-27.618-89.265-109.985-154.203-207.028-154.203-119.61 0-216.91 98.628-216.91 219.866-.005 98.352 64.032 181.839 152.083 209.856z"/>
        <path fill="#FFF" d="M310.464 532.033c-104.364 0-189.506-84.97-191.62-190.254 19.427 65.58 79.54 113.476 150.469 113.476 86.593 0 157.046-71.418 157.046-159.195 0-71.9-47.259-132.807-111.947-152.497 103.86 2.142 187.695 88.442 187.695 194.214 0 41.088-12.54 80.38-36.251 113.653-12.5 16.27-27.282 31.248-43.66 44.153-32.454 23.757-71.213 36.45-111.732 36.45z"/>
        <ellipse cx="49.738" cy="50.857" fill="#FFF" rx="49.099" ry="49.767"/>
        <ellipse cx="338.982" cy="362.396" fill="#FFF" rx="37.418" ry="37.927"/>
    </g>
</svg>
