<svg xmlns="http://www.w3.org/2000/svg" xmlns:xlink="http://www.w3.org/1999/xlink" width="1920" height="850" viewBox="0 0 1920 850">
    <defs>
        <path id="a" d="M.003.398h22.118v21.51H.003z"/>
        <path id="c" d="M.002.312h17.31v16.833H.002z"/>
    </defs>
    <g fill="none" fill-rule="evenodd">
        <path fill="#FFE19F" d="M1298.559 270.705l15.147 4.735 4.734-15.145-15.147-4.735-4.734 15.145zm16.03 10.182l-19.857-6.21a2.466 2.466 0 0 1-1.619-3.091l6.205-19.854a2.467 2.467 0 0 1 3.092-1.619l19.858 6.209a2.468 2.468 0 0 1 1.619 3.092l-6.207 19.854a2.467 2.467 0 0 1-3.092 1.619zM1332 429.815c-4.514 0-8.185 3.671-8.185 8.185 0 4.514 3.671 8.185 8.185 8.185 4.512 0 8.185-3.671 8.185-8.185 0-4.514-3.673-8.185-8.185-8.185m0 22.185c-7.72 0-14-6.28-14-14s6.28-14 14-14 14 6.28 14 14-6.28 14-14 14M1690.5 444.062c-5.642 0-10.233 4.458-10.233 9.938s4.59 9.938 10.233 9.938c5.642 0 10.233-4.458 10.233-9.938s-4.59-9.938-10.233-9.938m0 26.938c-9.65 0-17.5-7.627-17.5-17 0-9.373 7.85-17 17.5-17s17.5 7.627 17.5 17c0 9.373-7.85 17-17.5 17"/>
        <path stroke="#FFF" stroke-linecap="round" stroke-linejoin="round" stroke-width=".946" d="M1511 428.5h82M1306 494.5h54M1644 500.5h54M1297 216.5h54"/>
        <path fill="#FFE19F" d="M1314 398a5 5 0 1 1-10.002-.001 5 5 0 0 1 10.002 0M1527 392a5 5 0 1 1-10 .002 5 5 0 0 1 10-.003M1723 372a5 5 0 1 1-10 0 5 5 0 0 1 10 0M1721 485a5 5 0 1 1-10 0 5 5 0 0 1 10 0M1304 163a5 5 0 1 1-10.002-.002A5 5 0 0 1 1304 163"/>
        <g>
            <path fill="#FFE19F" d="M563.886 268.613l-11.209-3.505-3.503 11.209 11.21 3.505 3.502-11.209zm-11.862-7.536l14.694 4.596a1.825 1.825 0 0 1 1.198 2.288l-4.592 14.694a1.826 1.826 0 0 1-2.288 1.198l-14.695-4.595a1.827 1.827 0 0 1-1.198-2.289l4.593-14.694a1.825 1.825 0 0 1 2.288-1.198zM539.416 152.923a5.965 5.965 0 0 0 5.959-5.96 5.965 5.965 0 0 0-5.96-5.958 5.966 5.966 0 0 0-5.958 5.959 5.966 5.966 0 0 0 5.959 5.959m0-16.151c5.62 0 10.192 4.572 10.192 10.192s-4.572 10.191-10.192 10.191-10.192-4.572-10.192-10.191c0-5.62 4.572-10.192 10.192-10.192M278.693 142.249c4.052 0 7.349-3.296 7.349-7.348s-3.297-7.348-7.35-7.348c-4.051 0-7.348 3.296-7.348 7.348s3.297 7.348 7.349 7.348m0-19.917c6.93 0 12.568 5.639 12.568 12.569 0 6.93-5.637 12.569-12.568 12.569s-12.568-5.64-12.568-12.57c0-6.93 5.637-12.568 12.568-12.568"/>
            <path stroke="#FFF" stroke-linecap="round" stroke-linejoin="round" stroke-width=".946" d="M408.638 153.504H349.26M558.558 105.8H519.14M312.52 101.05H273.1M565.348 308.154H525.93"/>
            <path fill="#FFE19F" d="M552.279 175.569a3.723 3.723 0 1 1 7.446 0 3.723 3.723 0 0 1-7.446 0M397.207 179.93a3.723 3.723 0 1 1 7.446 0 3.723 3.723 0 0 1-7.446 0M254.798 194.694a3.723 3.723 0 1 1 7.445 0 3.723 3.723 0 0 1-7.445 0M255.981 112.356a3.722 3.722 0 1 1 7.445 0 3.722 3.722 0 0 1-7.445 0M560.164 347.277a3.723 3.723 0 1 1 7.446 0 3.723 3.723 0 0 1-7.446 0"/>
        </g>
        <g opacity=".77">
            <path fill="#FFE4A8" d="M310.4 633s8.365-8.152 9.554-19.215c.426-4.016-2.14-11.3-6.237-11.755-4.087-.454-7.943 4.28-8.57 10.106C303.956 623.202 310.4 633 310.4 633M307 651s-.183-10.774-6.704-18.251c-2.366-2.704-8.733-5.268-11.556-2.666-2.818 2.606-2.1 8.164 1.336 12.1C296.601 649.659 307 651 307 651M306 673.91s-4.369-9.253-13.161-13.126c-3.185-1.404-9.904-1.085-11.426 2.295-1.517 3.37 1.3 7.896 5.932 9.935 8.784 3.867 18.655.895 18.655.895M308 649.923s9.22.934 17.32-3.703c2.941-1.68 6.825-6.686 5.361-9.273-1.459-2.592-6.382-2.56-10.645-.118-8.11 4.64-12.036 13.094-12.036 13.094M308 671.86s9.353 1.191 17.444-3.374c2.933-1.646 6.743-6.687 5.202-9.386-1.546-2.691-6.524-2.775-10.79-.372C311.767 663.286 308 671.86 308 671.86M311 700.339s7.474 2.248 13.387-1.548c2.146-1.373 4.646-6.124 3.168-9.066-1.48-2.933-5.4-3.567-8.514-1.568-5.92 3.787-8.041 12.182-8.041 12.182M309 700.957s-2.89-7.947-9.852-12.402c-2.523-1.616-8.114-2.46-9.63-.063-1.524 2.392.45 6.386 4.118 8.729 6.96 4.458 15.364 3.736 15.364 3.736"/>
            <path fill="#FFE4A8" d="M298.193 818.561c-2.397.66-4.072.386-4.193.365l.348-1.92-.173.959.169-.961c.184.03 4.606.694 9.36-3.975 5.32-5.232 8.818-14.802 10.384-28.444 2.152-18.707.532-44.61-4.814-76.988-6.205-37.613-2.493-58.042-.037-71.568.626-3.465 1.168-6.46 1.39-9.029l1.97.166c-.227 2.658-.775 5.694-1.412 9.205-2.43 13.393-6.11 33.631.046 70.91 11.89 72.085 3.183 98.089-6.222 107.214-2.455 2.388-4.874 3.532-6.816 4.066"/>
            <path stroke="#FFF" stroke-width="2.034" d="M284.03 796s-6.46 25.195 12.97 122"/>
            <path fill="#FFE4A8" d="M336.788 901c-16.09-177.769 81.665-291.86 82.653-293l2.559 2.225c-.98 1.124-97.79 114.207-81.83 290.468l-3.382.307z"/>
            <g transform="matrix(-1 0 0 1 442 590)">
                <mask id="b" fill="#fff">
                    <use xlink:href="#a"/>
                </mask>
                <path fill="#FFE4A8" d="M22.12 21.907S20.917 11.705 13.5 4.338c-2.675-2.67-9.45-5.39-12.102-3.053C-1.244 3.62.016 8.91 3.918 12.8c7.408 7.364 18.203 9.106 18.203 9.106" mask="url(#b)"/>
            </g>
            <path fill="#FFE4A8" d="M408 627.612s6.829-7.286 16.805-9.385c3.613-.77 10.425.422 11.116 3.487.7 3.076-3.335 6.547-8.597 7.658-9.974 2.106-19.324-1.76-19.324-1.76M393 655.771s6.36-6.328 14.573-6.764c2.978-.155 8.254 2.253 8.422 5.564.156 3.299-3.493 6.186-7.82 6.405-8.212.433-15.175-5.205-15.175-5.205"/>
            <path fill="#FFE4A8" d="M410.03 627s-8.636-3.722-12.278-11.44c-1.32-2.802-1.061-8.76 2.064-10.162 3.139-1.397 7.362 1.023 9.283 5.093 3.642 7.724.931 16.509.931 16.509M340 814s-9.293-.663-16.182-6.309c-2.502-2.048-5.138-7.322-3.078-9.485 2.046-2.156 6.88-1.313 10.509 1.668C338.138 805.514 340 814 340 814M391.439 655s-9.108-4.876-13.372-14.032c-1.548-3.334-1.685-10.21 1.44-11.627 3.118-1.403 7.608 1.667 9.857 6.498 4.262 9.174 2.075 19.161 2.075 19.161M375.466 684s-9.29-3.47-12.848-11.495c-1.292-2.91-.66-9.285 2.865-10.963 3.534-1.669 8.044.673 9.915 4.894 3.565 8.027.068 17.564.068 17.564M377 685.31s5.774-8.256 14.666-10.167c3.224-.686 9.432 1.127 10.218 4.839.801 3.708-2.641 7.6-7.33 8.598-8.891 1.902-17.554-3.27-17.554-3.27"/>
            <path fill="#FFF" d="M340 816s1.785-8.022 9.578-13.854c2.823-2.111 9.721-4.284 12.218-2.466 2.5 1.815.944 5.975-3.166 9.05C350.845 814.555 340 816 340 816"/>
            <path fill="#FFE4A8" d="M354 746.216s4.805-4.096 12.948-4.215c2.946-.04 8.858 1.674 9.855 3.877 1.004 2.208-1.945 4.053-6.235 4.12-8.14.113-16.568-3.782-16.568-3.782M360.697 719s-5.446-3.167-8.031-10.82c-.938-2.78-1.06-8.93.785-10.608 1.857-1.679 4.546.488 5.91 4.526 2.588 7.654 1.336 16.902 1.336 16.902M346 781.763s2.49-10.014 7.755-15.199c1.903-1.88 5.979-2.52 6.96.69.976 3.214-.651 8.214-3.423 10.935-5.257 5.187-11.292 3.574-11.292 3.574"/>
            <path fill="#FFE4A8" d="M353.88 748s-11.525-4.748-17.803-12.546c-2.274-2.835-3.315-8.424.234-9.297 3.55-.874 9.318 2.01 12.625 6.127 6.286 7.798 4.944 15.716 4.944 15.716M344.608 783s-10.183-4.42-15.211-11.52c-1.824-2.575-2.249-7.622 1.112-8.356 3.362-.741 8.418 1.935 11.058 5.67 5.042 7.103 3.041 14.206 3.041 14.206"/>
            <path fill="#FFF" d="M338 845s2.201-6.642 9.73-11.442c2.72-1.732 9.18-3.5 11.336-1.981 2.151 1.515.426 4.975-3.537 7.504C348.007 843.874 338 845 338 845"/>
            <path fill="#FFF" d="M337.778 847s-10.004-2.895-15.2-8.857c-1.883-2.163-2.541-6.765.648-7.841 3.197-1.07 8.186.81 10.92 3.95 5.2 5.962 3.632 12.748 3.632 12.748"/>
            <path fill="#FFE4A8" d="M361 719.925s4.96-6.91 14.803-10.682c3.562-1.36 11.086-1.989 12.748.152 1.675 2.137-1.507 5.6-6.695 7.581-9.842 3.769-20.856 2.949-20.856 2.949"/>
            <path fill="#FFE19F" d="M290.389 851.87c-14.856 54.863-52.053 96.848-96.764 116.13-28.903-39.073-39.868-94.013-25.016-148.874 14.858-54.864 52.06-96.847 96.765-116.126 28.908 39.066 39.869 94.005 25.015 148.87"/>
            <path stroke="#FFC643" stroke-width="1.408" d="M261 723l-63 234M249 773l-20-34M236 813l-23-42M224 852l-39-68M215 892l-37-67M247 766l34-20M238 808l51-29M227 847l65-37"/>
            <path fill="#FFE19F" d="M359.15 934.287c-42.108 38.292-95.969 53.605-143.848 45.688-3.08-48.646 17.44-100.972 59.545-139.264 42.107-38.288 95.976-53.606 143.85-45.685 3.085 48.638-17.437 100.971-59.546 139.261"/>
            <path stroke="#FFC643" stroke-width="1.408" d="M402 810L223 973M366 844l2-37M335 870l2-46M303 898l5-79M369 842l37 2"/>
        </g>
        <g opacity=".77">
            <path fill="#FFE4A8" d="M1396.68 626s-6.692-6.311-7.643-14.876c-.341-3.11 1.712-8.748 4.99-9.1 3.269-.352 6.354 3.312 6.856 7.824.95 8.567-4.203 16.152-4.203 16.152M1399 639s.137-7.836 5.028-13.274c1.775-1.966 6.55-3.83 8.667-1.938 2.114 1.895 1.574 5.937-1.002 8.8C1406.799 638.024 1399 639 1399 639M1399 657.127s3.32-7.401 10.003-10.5c2.42-1.123 7.526-.867 8.683 1.836 1.153 2.696-.988 6.317-4.508 7.948-6.676 3.094-14.178.716-14.178.716M1399 638.938s-7.216.747-13.555-2.962c-2.302-1.344-5.34-5.349-4.195-7.418 1.141-2.074 4.994-2.049 8.33-.094 6.347 3.711 9.42 10.474 9.42 10.474M1399 655.888s-7.32.953-13.652-2.699c-2.295-1.317-5.277-5.35-4.07-7.51 1.21-2.152 5.105-2.219 8.443-.297 6.331 3.646 9.279 10.506 9.279 10.506M1396 677.48s-5.715 1.767-10.237-1.215c-1.641-1.08-3.553-4.812-2.423-7.124 1.132-2.304 4.13-2.802 6.511-1.232 4.527 2.975 6.149 9.572 6.149 9.572M1397 677.966s2.168-6.243 7.389-9.744c1.892-1.27 6.086-1.932 7.222-.05 1.143 1.88-.337 5.018-3.088 6.859-5.22 3.503-11.523 2.935-11.523 2.935"/>
            <path fill="#FFE4A8" d="M1405.718 766.666c1.876.502 3.188.294 3.282.278l-.272-1.46.135.729-.132-.731c-.144.023-3.605.528-7.325-3.022-4.165-3.979-6.901-11.256-8.127-21.63-1.684-14.225-.416-33.922 3.767-58.542 4.856-28.602 1.951-44.137.03-54.422-.49-2.635-.915-4.912-1.09-6.866l-1.54.126c.177 2.021.606 4.33 1.105 7 1.901 10.184 4.782 25.574-.036 53.92-9.306 54.815-2.491 74.59 4.869 81.529 1.922 1.815 3.814 2.685 5.334 3.091"/>
            <path stroke="#FFF" stroke-width="2.034" d="M1416.19 750s5.077 19.206-10.19 93"/>
            <path fill="#FFE4A8" d="M1375.643 830c12.207-135.299-61.952-222.132-62.702-223l-1.941 1.693c.744.856 74.185 86.923 62.078 221.073l2.565.234z"/>
            <g transform="translate(1296 593)">
                <mask id="d" fill="#fff">
                    <use xlink:href="#c"/>
                </mask>
                <path fill="#FFE4A8" d="M17.312 17.145s-.943-7.984-6.746-13.75C8.472 1.305 3.17-.823 1.094 1.005-.974 2.835.013 6.975 3.067 10.019c5.797 5.763 14.245 7.127 14.245 7.127" mask="url(#d)"/>
            </g>
            <path fill="#FFE4A8" d="M1322 621.209s-5.122-5.465-12.603-7.039c-2.71-.577-7.82.317-8.338 2.616-.525 2.307 2.501 4.91 6.448 5.743 7.48 1.58 14.493-1.32 14.493-1.32M1334 643.078s-4.977-4.746-11.405-5.073c-2.33-.116-6.46 1.69-6.591 4.173-.123 2.474 2.734 4.64 6.12 4.804 6.426.325 11.876-3.904 11.876-3.904"/>
            <path fill="#FFE4A8" d="M1319.762 621s6.785-2.707 9.647-8.32c1.038-2.038.834-6.37-1.621-7.39-2.467-1.016-5.785.743-7.294 3.703-2.862 5.618-.732 12.007-.732 12.007M1374 764s6.97-.507 12.137-4.825c1.876-1.566 3.853-5.599 2.308-7.252-1.535-1.65-5.16-1.005-7.882 1.275C1375.397 757.51 1374 764 1374 764M1334.449 642s7.287-3.751 10.698-10.794c1.238-2.564 1.347-7.854-1.153-8.943-2.494-1.08-6.086 1.281-7.885 4.998-3.41 7.057-1.66 14.739-1.66 14.739M1346.227 665s7.432-2.716 10.278-8.996c1.034-2.277.529-7.267-2.291-8.58-2.828-1.306-6.436.527-7.932 3.83-2.852 6.283-.055 13.746-.055 13.746M1346 666.101s-4.388-6.487-11.146-7.989c-2.45-.538-7.168.886-7.766 3.802-.609 2.914 2.007 5.972 5.57 6.756 6.758 1.494 13.342-2.569 13.342-2.569"/>
            <path fill="#FFF" d="M1374 765s-1.397-6.134-7.496-10.595c-2.21-1.614-7.608-3.275-9.562-1.885-1.956 1.388-.738 4.569 2.478 6.92 6.093 4.456 14.58 5.56 14.58 5.56"/>
            <path fill="#FFE4A8" d="M1363 711.162s-3.76-3.072-10.133-3.161c-2.306-.03-6.932 1.256-7.713 2.907-.785 1.656 1.523 3.04 4.88 3.09 6.37.085 12.966-2.836 12.966-2.836M1357.236 691s4.235-2.303 6.246-7.87c.73-2.02.824-6.494-.61-7.714-1.445-1.22-3.537.355-4.598 3.291-2.012 5.567-1.038 12.293-1.038 12.293M1369 738.819s-1.991-7.658-6.204-11.623c-1.522-1.438-4.783-1.928-5.568.528-.78 2.457.521 6.281 2.739 8.362 4.205 3.966 9.033 2.733 9.033 2.733"/>
            <path fill="#FFE4A8" d="M1363.09 713s8.644-3.453 13.352-9.124c1.706-2.062 2.486-6.127-.175-6.762-2.663-.635-6.99 1.462-9.47 4.456-4.714 5.671-3.707 11.43-3.707 11.43M1370.3 740s7.787-3.315 11.632-8.64c1.395-1.931 1.72-5.717-.851-6.267-2.57-.556-6.437 1.451-8.456 4.252-3.855 5.328-2.326 10.655-2.326 10.655"/>
            <path fill="#FFF" d="M1375 811s-1.395-6.137-7.495-10.59c-2.207-1.623-7.606-3.28-9.566-1.888-1.953 1.381-.731 4.566 2.475 6.917C1366.512 809.899 1375 811 1375 811M1375 788s-1.6-5.219-7.076-8.99c-1.979-1.36-6.676-2.75-8.245-1.557-1.564 1.191-.31 3.91 2.573 5.897 5.47 3.765 12.748 4.65 12.748 4.65"/>
            <path fill="#FFF" d="M1375.002 812s8.704-2.467 13.934-7.719c1.896-1.908 3.165-5.997.697-6.991-2.466-.984-6.875.632-9.627 3.4-5.235 5.26-5.004 11.31-5.004 11.31M1375.17 789s7.65-2.214 11.624-6.773c1.44-1.654 1.943-5.173-.496-5.996-2.445-.818-6.26.619-8.35 3.02-3.977 4.56-2.778 9.749-2.778 9.749"/>
            <path fill="#FFE4A8" d="M1357 691.943s-3.72-5.182-11.102-8.011c-2.672-1.02-8.315-1.492-9.561.114-1.256 1.603 1.13 4.2 5.02 5.686 7.383 2.827 15.643 2.211 15.643 2.211"/>
            <path fill="#FFE19F" d="M1411.995 791.917c11.225 41.613 39.33 73.458 73.11 88.083 21.838-29.637 30.123-71.308 18.901-112.92-11.225-41.613-39.333-73.457-73.111-88.08-21.841 29.631-30.123 71.302-18.9 112.917"/>
            <path stroke="#FFC643" stroke-width="1.408" d="M1434 694l48 178M1443 732l15-26M1452 763l18-32M1462 792l29-52M1469 823l28-51M1476 853l16-28M1444 727l-26-15M1451 759l-39-22M1459 788l-49-28M1468 819l-51-28M1476 851l-44-26"/>
            <path fill="#FFE19F" d="M1359.474 854.647c31.994 29.175 72.918 40.842 109.296 34.81 2.34-37.063-13.25-76.93-45.242-106.105-31.993-29.173-72.923-40.843-109.298-34.808-2.344 37.057 13.249 76.93 45.244 106.103"/>
            <path stroke="#FFC643" stroke-width="1.408" d="M1326 760l137 124M1354 786l-1-28M1377 806l-1-35M1402 827l-4-60M1425 851l-4-59M1448 871l-1-33M1351 785l-28 1M1375 805l-45 4M1398 826l-56 4"/>
            <path stroke="#A3D9F5" stroke-width="1.408" d="M1421 847l-58 4"/>
            <path fill="#FFE19F" d="M1356.821 913.794l1.106 13.4c-9.784 4.514-19.597 7.806-29.017 9.806a113.903 113.903 0 0 1-7.448-27.785c-6.452-47.694 55.894-90.814 110.538-59.643-4.845 20.102-21.076 42.708-46.001 61.02a166.192 166.192 0 0 1-19.898 12.538l-9.28-9.336z"/>
            <path stroke="#FFC643" stroke-width="1.447" d="M1364 846l34 12M1387 840l29 12"/>
        </g>
        <g fill="#FFE4A8">
            <path d="M692 820.587c-33.626-20.366-42.399-39.297-52.557-61.216-2.618-5.65-5.326-11.493-8.574-17.623-7.432-14.024-15.378-24.714-24.292-32.68-8.955-8.001-18.219-12.66-26.099-16.163-17.78-7.903-24.012-17.806-24.073-17.905l-1.405.862c.257.422 6.515 10.42 24.81 18.55 19.47 8.655 34.56 19.722 49.604 48.11 3.227 6.09 5.926 11.913 8.535 17.544 10.271 22.165 19.142 41.306 53.199 61.934l.852-1.413z"/>
            <path d="M546.948 678.331c5.545 6.306 12.008 7.952 15.31 5.73 3.387-2.28 4.528-9.248-1.85-17.817-7.23-9.713-14.72-10.6-18.12-7.97-4.943 3.823-1.179 13.418 4.66 20.057zM555.076 707.827c8.468-.84 13.718-5.105 13.918-9.05.205-4.045-4.75-8.98-15.557-8.77-12.25.236-17.507 5.767-17.436 10.024.102 6.19 10.157 8.68 19.075 7.796zM578.342 678.268c3.177 7.723 8.903 11.491 12.917 10.605 4.117-.909 7.705-6.905 4.518-16.996-3.613-11.438-10.612-14.868-14.866-13.642-6.184 1.781-5.915 11.901-2.57 20.033zM585.532 728.173c8.136-1.85 12.732-6.793 12.456-10.816-.283-4.127-5.69-8.548-16.177-7.063-11.886 1.683-16.339 7.911-15.762 12.22.839 6.265 10.915 7.607 19.483 5.66zM613.75 686.18c-3.975 7.47-3.308 14.255-.119 16.69 3.271 2.498 10.136 1.25 15.93-7.786 6.57-10.244 4.847-17.764 1.246-20.156-5.234-3.478-12.873 3.384-17.058 11.251zM607.532 752.173c8.136-1.85 12.732-6.793 12.456-10.816-.283-4.127-5.69-8.548-16.177-7.063-11.886 1.683-16.339 7.911-15.762 12.22.839 6.265 10.915 7.607 19.483 5.66zM636.937 715.631c-6.385 5.451-8.202 11.972-6.108 15.394 2.147 3.51 8.987 4.875 17.63-1.357 9.797-7.063 10.896-14.65 8.403-18.184-3.623-5.137-13.201-1.593-19.925 4.147zM630.313 784.577c5.832-6.234 6.929-13.022 4.426-16.236-2.567-3.296-9.63-3.888-17.655 3.393-9.096 8.253-9.346 16.036-6.428 19.316 4.242 4.768 13.515.092 19.657-6.473zM655.724 747.655c-7.555 3.97-10.777 9.967-9.423 13.768 1.389 3.898 7.928 6.701 17.907 2.45 11.31-4.818 14.045-12.014 12.316-16.009-2.512-5.808-12.845-4.39-20.8-.21zM650.308 811.025c4.368-6.03 4.588-12.026 2.083-14.536-2.569-2.574-8.731-2.319-14.88 4.856-6.97 8.132-6.352 14.897-3.482 17.419 4.173 3.666 11.679-1.389 16.279-7.739zM674.236 779.154c-7.442.748-12.055 4.538-12.23 8.044-.18 3.596 4.174 7.983 13.67 7.796 10.766-.21 15.386-5.127 15.323-8.911-.09-5.502-8.927-7.716-16.763-6.929z"/>
        </g>
        <g fill="#FFE4A8">
            <path d="M1571 816.02c23.072-14.132 29.091-27.268 36.06-42.477 1.798-3.92 3.655-7.975 5.884-12.228 5.1-9.731 10.551-17.148 16.668-22.676 6.144-5.552 12.5-8.785 17.907-11.215 12.2-5.484 16.475-12.355 16.517-12.424l.964.598c-.177.293-4.47 7.23-17.023 12.872-13.36 6.005-23.713 13.684-34.035 33.382-2.214 4.226-4.065 8.266-5.856 12.173-7.047 15.38-13.134 28.662-36.501 42.975l-.585-.98z"/>
            <path d="M1670.275 718.237c-3.77 4.503-8.165 5.68-10.41 4.092-2.304-1.628-3.08-6.606 1.258-12.726 4.916-6.938 10.01-7.571 12.321-5.693 3.361 2.73.802 9.584-3.169 14.327zM1664.705 737.884c-5.902-.56-9.561-3.403-9.7-6.032-.144-2.697 3.31-5.987 10.842-5.848 8.538.158 12.202 3.845 12.153 6.683-.072 4.126-7.08 5.788-13.295 5.197zM1649.327 717.73c-2.269 5.232-6.359 7.784-9.226 7.184-2.941-.616-5.504-4.677-3.227-11.513 2.58-7.749 7.58-10.072 10.618-9.242 4.417 1.207 4.225 8.062 1.835 13.571zM1644.572 752.434c-5.593-1.265-8.754-4.647-8.564-7.4.195-2.824 3.912-5.849 11.122-4.833 8.171 1.152 11.233 5.413 10.836 8.361-.576 4.287-7.504 5.205-13.394 3.872zM1625.088 722.525c2.764 5.23 2.3 9.98.082 11.684-2.276 1.749-7.051.875-11.083-5.45-4.57-7.171-3.37-12.435-.866-14.11 3.641-2.434 8.955 2.37 11.867 7.876zM1628.572 768.434c-5.593-1.265-8.754-4.647-8.564-7.4.195-2.824 3.912-5.85 11.122-4.833 8.171 1.152 11.233 5.413 10.836 8.361-.576 4.287-7.504 5.205-13.394 3.872zM1609.045 743.51c4.56 3.706 5.859 8.14 4.363 10.467-1.534 2.387-6.42 3.315-12.593-.923-6.998-4.803-7.783-9.962-6.002-12.365 2.588-3.493 9.43-1.083 14.232 2.82zM1613.002 791.073c-4.104-4.387-4.876-9.164-3.115-11.426 1.807-2.319 6.777-2.736 12.424 2.388 6.4 5.808 6.577 11.285 4.524 13.593-2.985 3.355-9.511.065-13.833-4.555zM1596.413 765.658c5.118 2.888 7.3 7.249 6.383 10.013-.94 2.835-5.37 4.874-12.13 1.782-7.663-3.504-9.515-8.737-8.344-11.643 1.702-4.224 8.702-3.193 14.091-.152zM1599.517 808.897c-2.978-4.1-3.128-8.178-1.42-9.884 1.752-1.75 5.953-1.577 10.145 3.301 4.752 5.53 4.331 10.13 2.374 11.845-2.845 2.493-7.962-.944-11.099-5.262zM1583.561 787.106c5.133.514 8.314 3.12 8.435 5.53.125 2.473-2.878 5.488-9.428 5.36-7.425-.145-10.61-3.525-10.568-6.127.063-3.782 6.157-5.304 11.561-4.763z"/>
        </g>
        <g fill="#FFE19F" opacity=".537">
            <path d="M373.882 817c18.528-8.355 32.821-17.606 43.698-28.282 10.925-10.725 17.591-22.085 22.67-31.783 11.461-21.883 24.619-29.027 24.75-29.096l-.999-1.839c-.56.294-13.84 7.463-25.633 29.979-12.55 23.963-27.864 42.213-65.368 59.126l.882 1.895z"/>
            <path d="M487.659 712.334c-4.535-6.608-17.164-2.491-26.15 4.498-8.534 6.636-11.15 14.788-8.545 19.179 2.67 4.503 11.543 6.473 23.052-1.065 13.045-8.545 14.762-18.068 11.643-22.612M434.405 702.007c-7.928-.342-11.848 12.225-11.365 23.607.459 10.808 5.533 17.794 10.566 18.349 5.162.569 11.838-5.34 12.358-19.069.589-15.56-6.106-22.652-11.559-22.887M485.801 762.757c-1.915-7.728-15.455-8.153-26.57-4.652-10.557 3.325-16.02 10.076-15.139 15.072.905 5.124 8.646 9.979 22.366 6.818 15.553-3.582 20.661-11.922 19.343-17.238M403.96 737.02c-7.787.622-10.18 13.643-8.404 24.946 1.686 10.734 7.443 17.09 12.425 17.034 5.11-.06 10.956-6.77 9.893-20.536-1.206-15.605-8.56-21.871-13.915-21.444M459.55 823.372c4.896-6.545-3.387-16.992-13.233-23.024-9.35-5.728-18.171-5.37-21.563-1.406-3.479 4.066-2.392 13.086 8.843 21.299 12.735 9.309 22.586 7.633 25.954 3.131"/>
            <path d="M438.917 756l2.083-.553L437.083 743l-2.083.553zM433 769.492l11.877.508.123-1.492-11.877-.508zM422.786 802l1.214-1.622-11.017-8.208L408.94 779l-1.94.593 4.237 13.803z"/>
        </g>
        <g fill="#FFE19F" opacity=".537">
            <path d="M1488.882 817c18.528-8.355 32.821-17.606 43.698-28.282 10.925-10.725 17.591-22.085 22.67-31.783 11.461-21.883 24.619-29.027 24.75-29.096l-.999-1.839c-.56.294-13.84 7.463-25.633 29.979-12.55 23.963-27.864 42.213-65.368 59.126l.882 1.895z"/>
            <path d="M1602.659 712.334c-4.535-6.608-17.164-2.491-26.15 4.498-8.534 6.636-11.15 14.788-8.545 19.179 2.67 4.503 11.543 6.473 23.052-1.065 13.045-8.545 14.762-18.068 11.643-22.612M1549.405 702.007c-7.928-.342-11.848 12.225-11.365 23.607.459 10.808 5.533 17.794 10.566 18.349 5.162.569 11.838-5.34 12.358-19.069.589-15.56-6.106-22.652-11.559-22.887M1600.801 762.757c-1.915-7.728-15.455-8.153-26.57-4.652-10.557 3.325-16.02 10.076-15.139 15.072.905 5.124 8.646 9.979 22.366 6.818 15.553-3.582 20.661-11.922 19.343-17.238M1518.96 737.02c-7.787.622-10.18 13.643-8.404 24.946 1.686 10.734 7.443 17.09 12.425 17.034 5.11-.06 10.956-6.77 9.893-20.536-1.206-15.605-8.56-21.871-13.915-21.444M1574.55 823.372c4.896-6.545-3.387-16.992-13.233-23.024-9.35-5.728-18.171-5.37-21.563-1.406-3.479 4.066-2.392 13.086 8.843 21.299 12.735 9.309 22.586 7.633 25.954 3.131"/>
            <path d="M1553.917 756l2.083-.553-3.917-12.447-2.083.553zM1548 769.492l11.877.508.123-1.492-11.877-.508zM1537.786 802l1.214-1.622-11.017-8.208-4.043-13.17-1.94.593 4.237 13.803z"/>
        </g>
    </g>
</svg>
