<svg xmlns="http://www.w3.org/2000/svg" width="114" height="114" viewBox="0 0 114 114">
    <defs>
        <linearGradient id="a" x1="20.011%" x2="83.762%" y1="0%" y2="100%">
            <stop offset="0%" stop-color="#FBB711"/>
            <stop offset="100%" stop-color="#F58007"/>
        </linearGradient>
    </defs>
    <g fill="none" fill-rule="evenodd">
        <rect width="114" height="114" fill="url(#a)" rx="37"/>
        <g transform="translate(24 21)">
            <path d="M58.807 4.38l3.765 3.209a32.366 32.366 0 0 1 1.63-1.814L61.266.398a53.537 53.537 0 0 0-2.46 3.982z"/>
            <path fill="#FFF" d="M31.851 70.665C15.607 69.105 2.855 55.199 2.855 38.333c0-17.906 14.373-32.475 32.04-32.475 16.64 0 30.358 12.929 31.894 29.398-3.55-11.473-14.135-19.819-26.606-19.819-15.372 0-27.877 12.676-27.877 28.257 0 12.64 8.23 23.37 19.545 26.97z"/>
            <path fill="#FFF" d="M40.185 68.662c-13.412 0-24.354-10.92-24.626-24.451 2.497 8.428 10.222 14.584 19.338 14.584 11.128 0 20.183-9.179 20.183-20.46 0-9.24-6.074-17.068-14.387-19.599 13.347.276 24.122 11.367 24.122 24.96 0 5.281-1.612 10.331-4.66 14.607a32.355 32.355 0 0 1-5.61 5.675 24.191 24.191 0 0 1-14.36 4.684z"/>
            <ellipse cx="6.678" cy="6.822" fill="#FFF" rx="6.31" ry="6.396"/>
            <ellipse cx="43.85" cy="46.861" fill="#FFF" rx="4.809" ry="4.874"/>
        </g>
    </g>
</svg>
