<svg xmlns="http://www.w3.org/2000/svg" width="241" height="83" viewBox="0 0 241 83">
    <g fill="none" fill-rule="evenodd">
        <path d="M69.34 5.12l4.44 3.751a37.951 37.951 0 0 1 1.92-2.12L72.24.465a62.499 62.499 0 0 0-2.9 4.655z"/>
        <path fill="#F58007" d="M37.556 82.608c-19.154-1.824-34.19-18.08-34.19-37.796 0-20.933 16.948-37.964 37.778-37.964 19.621 0 35.796 15.114 37.608 34.366-4.186-13.411-16.667-23.168-31.372-23.168-18.125 0-32.87 14.818-32.87 33.033 0 14.777 9.704 27.32 23.046 31.53z"/>
        <path fill="#F58007" d="M47.383 80.267c-15.815 0-28.717-12.766-29.037-28.584 2.944 9.853 12.053 17.049 22.801 17.049 13.122 0 23.798-10.73 23.798-23.918 0-10.802-7.162-19.953-16.964-22.911 15.738.322 28.442 13.288 28.442 29.179 0 6.173-1.9 12.076-5.493 17.075a37.983 37.983 0 0 1-6.616 6.634c-4.918 3.569-10.791 5.476-16.931 5.476z"/>
        <ellipse cx="7.874" cy="7.975" fill="#F58007" rx="7.44" ry="7.477"/>
        <ellipse cx="51.704" cy="54.781" fill="#F58007" rx="5.67" ry="5.698"/>
        <text fill="#000" font-family="Helvetica" font-size="24">
            <tspan x="94" y="47">Dakko Loans</tspan>
        </text>
    </g>
</svg>
